<svg id="Layer_1" enable-background="new 0 0 512 512" height="512" viewBox="0 0 512 512" width="512" xmlns="http://www.w3.org/2000/svg"><g><path d="m341.846 131.633c-57.231 0-114.462 0-171.692 0-4.173-8.277-22.014-45.832-5.981-82.803 3.339-7.7 8.757-19.868 21.224-27.883 22.353-14.371 46.893-.919 77.908 1.631 21.014 1.728 51.132-.964 89.391-21.721 3.267-1.772 7.353-.712 9.351 2.424 12.684 19.918 16.595 45.872 12.76 68.965-1.888 11.371-6.134 21.965-11.819 31.952-2.518 4.423-15.228 27.434-21.142 27.435z" fill="#ffe180"/><g><path d="m362.048 3.281c-1.998-3.136-6.084-4.196-9.351-2.424-6.069 3.293-11.932 6.127-17.588 8.565 9.855 18.937 12.705 42.033 9.253 62.825-1.888 11.371-6.134 21.965-11.819 31.952-2.518 4.423-15.228 27.434-21.142 27.434h30.446c5.914 0 18.624-23.011 21.142-27.434 5.685-9.987 9.931-20.581 11.819-31.952 3.834-23.094-.076-49.048-12.76-68.966z" fill="#fbd270"/></g><g><path d="m331.866 304.77 24.035 5.282 7.243 4.09 7.723-.801 17.958 3.947c27.929 6.14 47.82 30.882 47.82 59.481v125.082c0 5.602-4.547 10.149-10.149 10.149h-340.994c-5.602 0-10.149-4.547-10.149-10.149v-125.082c0-28.599 19.891-53.341 47.82-59.481l17.959-3.947 8.904 1.788 6.062-5.077 24.035-5.282z" fill="#82aee3"/><path d="m256 342.01c30.867 0 58.323-14.586 75.866-37.237l-32.808-3.914c-9.309-2.046-15.94-10.293-15.94-19.824l15-61.824h-84.234v61.824c0 9.531-6.632 17.778-15.94 19.824l-17.808 3.914c17.541 22.651 44.997 37.237 75.864 37.237z" fill="#ffcebf"/><g><path d="m331.866 304.77-17.806-3.913c-9.316-2.04-15.944-10.291-15.944-19.82v-61.826l-30.446 15.223v61.826c0 9.53 6.627 17.78 15.944 19.82l30.104 6.616c3.001-2.265 6.294-5.025 9.665-8.355 3.376-3.333 6.179-6.595 8.483-9.571z" fill="#ffb09e"/><path d="m313.718 322.696 44.661 9.815c27.929 6.14 47.82 30.882 47.82 59.481v120.008h20.297c5.602 0 10.149-4.547 10.149-10.149v-125.082c0-28.599-19.891-53.341-47.82-59.481l-17.958-3.947-7.723.801-7.243-4.09-24.035-5.282c-2.304 2.976-5.108 6.238-8.483 9.571-3.371 3.33-6.663 6.09-9.665 8.355z" fill="#528fd8"/></g><path d="m436.646 459.136v42.716c0 5.602-4.547 10.149-10.149 10.149h-65.966v-52.864h76.115z" fill="#ffcebf"/><path d="m406.2 459.136v42.716c0 5.602-4.547 10.149-10.149 10.149h30.446c5.602 0 10.149-4.547 10.149-10.149v-42.716z" fill="#ffb09e"/><path d="m75.354 459.136v42.716c0 5.602 4.547 10.149 10.149 10.149h65.966v-52.864h-76.115z" fill="#ffcebf"/><g><path d="m318.885 421.245c.94.382 1.91.563 2.865.563 3.005 0 5.851-1.791 7.054-4.745l41.681-102.46c.169-.415.29-.837.383-1.261l-14.966-3.289-41.198 101.274c-1.585 3.894.287 8.334 4.181 9.918z" fill="#eaf6ff"/><path d="m355.901 310.052-8.183 20.115c3.314.74 11.917 2.529 15.018 3.482.366-1.271 7.917-19.105 8.131-20.309z" fill="#d8ecfe"/><path d="m141.515 314.603 41.512 102.045c1.202 2.954 4.049 4.745 7.053 4.745.955 0 1.926-.181 2.866-.563 3.894-1.584 5.766-6.025 4.182-9.919l-41.029-100.859-14.966 3.289c.092.424.213.846.382 1.262z" fill="#eaf6ff"/></g><g><path d="m317.901 512h-123.802c-5.605 0-10.149-4.544-10.149-10.149v-82.163c0-5.605 4.544-10.149 10.149-10.149h123.803c5.605 0 10.149 4.544 10.149 10.149v82.163c-.001 5.605-4.545 10.149-10.15 10.149z" fill="#3f6e92"/><path d="m317.901 409.54h-30.446c5.605 0 10.149 4.544 10.149 10.149v82.163c0 5.605-4.544 10.149-10.149 10.149h30.446c5.605 0 10.149-4.544 10.149-10.149v-82.163c0-5.605-4.544-10.149-10.149-10.149z" fill="#355f7f"/><path d="m297.604 409.54h-83.208l12.418-24.836c1.719-3.438 5.233-5.61 9.077-5.61h40.218c3.844 0 7.358 2.172 9.077 5.61z" fill="#305972"/><g><circle cx="256" cy="460.77" fill="#eaf6ff" r="21.82"/></g><circle cx="212.348" cy="435.415" fill="#eaf6ff" r="7.611"/></g><g><path d="m360.531 512c-4.204 0-7.612-3.408-7.612-7.612v-64.16c0-4.204 3.407-7.612 7.612-7.612s7.612 3.408 7.612 7.612v64.16c0 4.204-3.408 7.612-7.612 7.612z" fill="#528fd8"/></g><g><path d="m151.469 512c-4.204 0-7.611-3.408-7.611-7.612v-64.16c0-4.204 3.408-7.612 7.611-7.612 4.204 0 7.611 3.408 7.611 7.612v64.16c0 4.204-3.408 7.612-7.611 7.612z" fill="#528fd8"/></g></g><path d="m341.848 131.628v60.517c0 23.707-9.611 45.171-25.138 60.699-5.466 5.466-11.666 10.199-18.439 14.038-5.294 3-10.937-9.546-16.854-7.714-4.438 1.374-9.031 17.397-13.745 18.038-3.816.519-7.712.787-11.671.787-15.304 0-29.675-4.009-42.117-11.031-26.102-14.716-43.731-42.706-43.731-74.816v-60.517c25.037-28.152 44.218-33.237 57.502-32.192 18.481 1.441 23.91 14.624 46.826 14.695 7.632.03 13.488-1.411 18.633-2.973 6.995-1.881 14.368-5.765 24.113-2.699 12.361 3.673 20.074 14.613 24.621 23.168z" fill="#ffcebf"/><g><path d="m317.227 108.459c-9.61-3.023-16.912.708-23.821 2.616 8.829 4.897 14.707 13.525 18.441 20.553v60.517c0 8.895-1.353 17.474-3.864 25.542-2.248 7.225-7.086 22.198-21.275 35.157-13.68 12.495-28.403 16.14-32.951 17.12-18.724 4.034-33.84-.731-39.875-3.003 7.992 4.382 22.831 10.996 42.117 11.031 11.09.021 19.985-2.145 25.416-3.825 13.488-4.175 25.555-11.585 35.294-21.323 15.527-15.528 25.138-36.992 25.138-60.699v-60.517c-4.546-8.555-12.259-19.495-24.62-23.169z" fill="#ffb09e"/></g><g><g><path d="m214.581 186.541c-4.204 0-7.611-3.408-7.611-7.611v-16.567c0-4.204 3.408-7.611 7.611-7.611s7.611 3.408 7.611 7.611v16.567c.001 4.203-3.407 7.611-7.611 7.611z" fill="#554e56"/></g><g><path d="m297.419 186.541c-4.204 0-7.612-3.408-7.612-7.611v-16.567c0-4.204 3.407-7.611 7.612-7.611s7.611 3.408 7.611 7.611v16.567c.001 4.203-3.407 7.611-7.611 7.611z" fill="#554e56"/></g></g><g><path d="m256.001 239.325c-.147 0-.293-.001-.441-.002-8.707-.091-15.566-2.871-19.788-5.186-3.686-2.022-5.035-6.648-3.013-10.334 2.021-3.685 6.647-5.036 10.334-3.013 2.695 1.478 7.073 3.253 12.626 3.311 5.791.053 10.373-1.768 13.188-3.312 3.688-2.021 8.313-.671 10.334 3.014 2.021 3.686.672 8.313-3.014 10.334-4.337 2.378-11.343 5.188-20.226 5.188z" fill="#ffb09e"/></g><g><path d="m352.391 176.338h-10.544v-40.524h10.544c11.19 0 20.262 9.072 20.262 20.262 0 11.191-9.072 20.262-20.262 20.262z" fill="#ffcebf"/><path d="m159.609 176.338h10.544v-40.524h-10.544c-11.19 0-20.262 9.072-20.262 20.262 0 11.191 9.072 20.262 20.262 20.262z" fill="#ffb09e"/></g></g></svg>