<?xml version="1.0" encoding="iso-8859-1"?>
<!-- Generator: Adobe Illustrator 19.0.0, SVG Export Plug-In . SVG Version: 6.00 Build 0)  -->
<svg version="1.1" id="Capa_1" xmlns="http://www.w3.org/2000/svg" xmlns:xlink="http://www.w3.org/1999/xlink" x="0px" y="0px"
	 viewBox="0 0 512 512" style="enable-background:new 0 0 512 512;" xml:space="preserve">
<polygon style="fill:#FF5A5A;" points="448,502 256,402.095 64,502 64,10 448,10 "/>
<path d="M448,512c-1.582,0-3.166-0.375-4.616-1.129L256,413.368L68.616,510.871c-3.098,1.612-6.815,1.492-9.805-0.322
	C55.824,508.735,54,505.495,54,502V196.5c0-5.523,4.478-10,10-10s10,4.477,10,10v289.024l177.384-92.3
	c2.895-1.505,6.338-1.505,9.232,0L438,485.524V361.667c0-5.523,4.478-10,10-10s10,4.477,10,10V502c0,3.495-1.824,6.735-4.812,8.549
	C451.598,511.514,449.801,512,448,512z"/>
<path d="M448,296.333c-5.522,0-10-4.477-10-10V20H74v96c0,5.523-4.478,10-10,10s-10-4.477-10-10V10c0-5.523,4.478-10,10-10h384
	c5.522,0,10,4.477,10,10v276.333C458,291.856,453.523,296.333,448,296.333z"/>
<polygon style="fill:#FAE196;" points="255.974,93.182 292.663,167.472 374.661,179.364 315.344,237.215 329.372,318.874 
	256.024,280.338 182.696,318.913 196.68,237.246 137.333,179.428 219.325,167.491 "/>
<path d="M182.696,328.914c-2.072,0-4.135-0.644-5.877-1.908c-3.08-2.237-4.623-6.028-3.98-9.78l13.098-76.485l-55.582-54.15
	c-2.727-2.656-3.708-6.63-2.533-10.25c1.176-3.621,4.305-6.26,8.071-6.808l76.788-11.179l34.324-69.595
	c1.684-3.414,5.159-5.576,8.966-5.577c0.001,0,0.002,0,0.003,0c3.806,0,7.281,2.16,8.966,5.572l34.362,69.577l76.795,11.138
	c3.767,0.546,6.897,3.184,8.074,6.804s0.197,7.594-2.527,10.252l-55.554,54.18l13.138,76.479c0.645,3.751-0.896,7.543-3.976,9.781
	c-3.079,2.239-7.161,2.535-10.531,0.764l-68.694-36.092l-68.675,36.128C185.888,328.534,184.289,328.914,182.696,328.914z
	 M158.824,186.404l44.835,43.679c2.357,2.297,3.434,5.606,2.878,8.851l-10.565,61.696l55.396-29.143
	c2.915-1.532,6.395-1.533,9.308-0.002l55.411,29.113l-10.598-61.689c-0.558-3.244,0.518-6.554,2.873-8.853l44.812-43.703
	l-61.945-8.984c-3.257-0.473-6.073-2.518-7.53-5.468l-27.718-56.123l-27.687,56.138c-1.456,2.952-4.271,4.998-7.528,5.472
	L158.824,186.404z"/>
<path d="M64,166.67c-2.63,0-5.21-1.07-7.07-2.93S54,159.3,54,156.67c0-2.64,1.069-5.21,2.93-7.08c1.86-1.86,4.44-2.92,7.07-2.92
	c2.63,0,5.21,1.06,7.069,2.92c1.86,1.87,2.931,4.45,2.931,7.08s-1.07,5.2-2.931,7.07C69.21,165.6,66.63,166.67,64,166.67z"/>
<path d="M448,333c-2.63,0-5.21-1.07-7.07-2.93S438,325.63,438,323s1.069-5.21,2.93-7.07c1.86-1.86,4.44-2.93,7.07-2.93
	s5.21,1.07,7.069,2.93c1.86,1.86,2.931,4.44,2.931,7.07s-1.07,5.21-2.931,7.07C453.21,331.93,450.63,333,448,333z"/>
<g>
</g>
<g>
</g>
<g>
</g>
<g>
</g>
<g>
</g>
<g>
</g>
<g>
</g>
<g>
</g>
<g>
</g>
<g>
</g>
<g>
</g>
<g>
</g>
<g>
</g>
<g>
</g>
<g>
</g>
</svg>
