<?xml version="1.0"?>
<svg xmlns="http://www.w3.org/2000/svg" xmlns:xlink="http://www.w3.org/1999/xlink" version="1.1" id="Capa_1" x="0px" y="0px" width="512px" height="512px" viewBox="0 0 97.75 97.75" style="enable-background:new 0 0 97.75 97.75;" xml:space="preserve"><g><g>
	<path d="M48.875,0C21.883,0,0,21.882,0,48.875S21.883,97.75,48.875,97.75S97.75,75.868,97.75,48.875S75.867,0,48.875,0z    M28.277,66.361c-8.895,0-16.105-7.828-16.105-17.486s7.211-17.487,16.105-17.487s16.106,7.829,16.106,17.487   S37.172,66.361,28.277,66.361z M69.008,65.945c-9.152,0-16.57-7.735-16.57-17.279c0-9.542,7.418-17.278,16.57-17.278   c9.15,0,16.57,7.736,16.57,17.278C85.578,58.21,78.158,65.945,69.008,65.945z" data-original="#000000" class="active-path" data-old_color="#000000" fill="#FFFFFF"/>
</g></g> </svg>
